<?xml version="1.0" encoding="utf-8"?>
<!-- Generator: Adobe Illustrator 22.0.1, SVG Export Plug-In . SVG Version: 6.00 Build 0)  -->
<svg version="1.0" id="Layer_1" xmlns="http://www.w3.org/2000/svg" xmlns:xlink="http://www.w3.org/1999/xlink" x="0px" y="0px"
	 viewBox="0 0 1920 1080" enable-background="new 0 0 1920 1080" xml:space="preserve">
<g>
	<g>
		<path fill="#28649B" d="M32,908l42.8-40.8c11.6,18.8,28,29.6,49.2,29.6c24.8,0,40.4-13.6,46.4-43.6l26.8-135.9H99.1l10.4-52h162.3
			l-37.2,184.7c-14.4,73.5-50.8,99.9-111.5,99.9C80.4,950,49.2,935.2,32,908z"/>
		<path fill="#28649B" d="M465.8,759.7l-36.4,182.8h-50.3l3.4-18c-14.6,13.2-33.6,20.7-56.1,20.7c-42.5,0-78.8-29.9-78.8-81.9
			c0-61.5,44.5-106.3,100.9-106.3c26.5,0,47.6,8.5,59.4,27.5l4.8-24.8H465.8z M396.5,841.2c0-24.8-15.3-40.4-41.8-40.4
			c-31.3,0-53.7,24.5-53.7,60.1c0,24.8,15.3,40.4,41.8,40.4C374.1,901.4,396.5,876.9,396.5,841.2z"/>
		<path fill="#28649B" d="M452.3,930.5l8.1-40.8c15.6,10.5,33.9,16.7,57,16.7c26.2,0,41-6.8,41-17.6c0-25.8-90.3-5.8-90.3-67.6
			c0-41.1,38.4-64.2,91.7-64.2c25.5,0,51.3,5.8,67.9,15.3l-10.5,40.1c-20.3-13.5-39.9-16.8-62.9-16.8c-24.5,0-35.3,9.6-35.3,19.4
			c0,26.8,96.5,5.4,96.5,66.2c0,41.8-39.4,63.9-92.1,63.9C491.2,945.2,467.6,940,452.3,930.5z"/>
		<path fill="#28649B" d="M948.5,821.5c0,7.1-0.7,14.3-2.4,22.4l-20,101.2h-53l19.4-97.5c1-5.1,1.4-9.5,1.4-13.9
			c0-18.3-9.9-28.2-28.9-28.2c-24.5,0-41.4,14.3-47.9,45.9l-18.7,93.8h-53l19.4-97.5c1-5.1,1.4-9.5,1.4-13.6
			c0-18.7-9.9-28.5-28.9-28.5c-24.8,0-41.4,14.3-48.2,46.5l-18.3,93.1h-53L654,762.4h50.3l-4.1,19c16-14.6,36-21.7,57.4-21.7
			c25.1,0,45.9,10.2,56.1,29.9c17.7-19.4,41.4-29.9,69.6-29.9C922.4,759.7,948.5,781.1,948.5,821.5z"/>
		<path fill="#28649B" d="M1175.5,759.7l-36.3,182.8h-50.3l3.4-18c-14.6,13.2-33.6,20.7-56.1,20.7c-42.5,0-78.8-29.9-78.8-81.9
			c0-61.5,44.5-106.3,100.9-106.3c26.5,0,47.6,8.5,59.4,27.5l4.8-24.8H1175.5z M1106.2,841.2c0-24.8-15.3-40.4-41.8-40.4
			c-31.3,0-53.7,24.5-53.7,60.1c0,24.8,15.3,40.4,41.8,40.4C1083.8,901.4,1106.2,876.9,1106.2,841.2z"/>
		<path fill="#28649B" d="M1237.9,718.2h-89.5l10.8-52.8H1403l-10.8,52.8h-89.1l-45.6,227h-64.7L1237.9,718.2z"/>
		<path fill="#28649B" d="M1888,822.2c0,6.8-0.7,13.9-2.4,21.7l-20.4,101.2h-53l19.7-97.8c1-4.4,1.4-8.8,1.4-12.6
			c0-18.7-10.2-29.2-31.3-29.2c-26.8,0-45.5,14.9-52,46.9l-18.3,92.7h-53l55.8-279.8h53.1L1765,779.1c16-13.2,35.7-19.4,56.4-19.4
			C1861.2,759.7,1888,781.4,1888,822.2z"/>
		<path fill="#28649B" d="M1554.1,860.6c0,24.8,15.3,40.8,42.5,40.8c8.9,0,17.1-1.7,24.5-5.5c3.7-1.9,7.3-4.3,10.5-7.2l39.9,24.4
			c-13.6,15-32.3,25.3-53.9,29.7c-7.7,1.6-15.8,2.4-24.1,2.4c-56.7,0-93.1-32.6-93.1-81.9c0-60.8,46.2-106.3,111.4-106.3
			c30,0,54.1,9.8,70,27.7c0.4,0.4,0.8,0.9,1.1,1.3c0.6,0.7,1.1,1.3,1.6,2c0.9,1.1,1.7,2.3,2.6,3.4l5.3,8.6c0.5,0.9,0.9,1.8,1.4,2.7
			l-5.2,3.2l-38,23.2c-0.5-1.5-1.1-3-1.8-4.4c-0.7-1.4-1.5-2.9-2.4-4.2c-3.2-5.2-7.1-9.3-11.6-12.4c-7.2-4.9-16.1-7.3-26.3-7.3
			C1577.2,800.8,1554.1,825.3,1554.1,860.6z"/>
		<path fill="#28649B" d="M1490.3,837.5c0-11.8-2-22.7-5.7-32.3c-11.6-29.9-40.4-47.9-80.3-48.2c-0.3,0-0.6,0-1,0
			c-47.7,0-84.4,25.4-99.8,63.9c0,0.1,0,0.1-0.1,0.1c-5.3,12.8-8.2,27.1-8.2,42.3c0,49.2,36.4,81.9,93.1,81.9h0.5c1,0,2,0,3-0.1
			c0.9,0,1.8-0.1,2.7-0.1c6.2-0.3,12.2-1.1,18-2.2c19.8-4.1,37.2-13.1,50.4-26.2c1.2-1.1,2.3-2.3,3.4-3.5l-39.9-24.4
			c-3.2,2.9-6.8,5.3-10.5,7.2c-7.3,3.7-15.6,5.5-24.5,5.5c-25.4,0-40.4-13.9-42.3-36h138.1C1488.9,856.9,1490.3,847.4,1490.3,837.5z
			 M1351,834.4c7.1-22.8,24.5-37.7,49.9-37.7c16.7,0,29.6,6.4,36.2,18.1c3,5.4,4.6,12,4.6,19.6H1351z"/>
	</g>
	<path fill="#28649B" d="M800.1,472.6h137c37.8,0,68.5-30.7,68.5-68.5v0H800.1V472.6z M800.1,130v68.5h114.2V278h91.4v-79.5h114.2
		V130H800.1z M911.9,375h96.2c8.4,0,15.2-6.8,15.2-15.2v-38.1c0-8.4-6.8-15.2-15.2-15.2h-96.2c-8.4,0-15.2,6.8-15.2,15.2v38.1
		C896.7,368.2,903.5,375,911.9,375z"/>
</g>
</svg>
