<?xml version="1.0" encoding="utf-8"?>
<!-- Generator: Adobe Illustrator 22.0.1, SVG Export Plug-In . SVG Version: 6.00 Build 0)  -->
<svg version="1.1" id="Layer_1" xmlns="http://www.w3.org/2000/svg" xmlns:xlink="http://www.w3.org/1999/xlink" x="0px" y="0px"
	 viewBox="0 0 1920 1080" style="enable-background:new 0 0 1920 1080;" xml:space="preserve">
<g>
	<path d="M34,47.5h12c3.3,0,6-2.7,6-6H34V47.5z"/>
	<path d="M52.2,33h-8.4c-0.7,0-1.3,0.6-1.3,1.3v3.3c0,0.7,0.6,1.3,1.3,1.3h8.4c0.7,0,1.3-0.6,1.3-1.3v-3.3
		C53.5,33.6,52.9,33,52.2,33z"/>
	<polygon points="34,23.5 44,23.5 44,30.5 52,30.5 52,23.5 62,23.5 62,17.5 34,17.5 	"/>
	<path d="M83.6,17.5L82.5,23h10.6l-2.9,14.3c-0.6,3.2-2.3,4.6-5,4.6c-2.3,0-4-1.1-5.3-3.1l-4.6,4.3c1.9,2.9,5.2,4.4,9.8,4.4
		c6.5,0,10.5-2.8,12-10.5l4-19.5H83.6z"/>
	<path d="M116.3,27.4l-0.5,2.6c-1.3-2-3.6-2.9-6.4-2.9c-6.1,0-10.9,4.7-10.9,11.2c0,5.5,3.9,8.6,8.5,8.6c2.4,0,4.5-0.8,6-2.2
		l-0.4,1.9h5.4l3.9-19.3H116.3z M108.8,42.4c-2.9,0-4.5-1.6-4.5-4.3c0-3.8,2.4-6.3,5.8-6.3c2.9,0,4.5,1.6,4.5,4.3
		C114.6,39.8,112.1,42.4,108.8,42.4z"/>
	<path d="M131.6,31.2c2.5,0,4.6,0.3,6.8,1.8l1.1-4.2c-1.8-1-4.6-1.6-7.3-1.6c-5.7,0-9.9,2.4-9.9,6.8c0,6.5,9.7,4.4,9.7,7.1
		c0,1.1-1.6,1.9-4.4,1.9c-2.5,0-4.5-0.7-6.1-1.8l-0.9,4.3c1.6,1,4.2,1.6,7.7,1.6c5.7,0,9.9-2.3,9.9-6.7c0-6.4-10.4-4.2-10.4-7
		C127.8,32.2,128.9,31.2,131.6,31.2z"/>
	<path d="M167,27.4c-3,0-5.6,1.1-7.5,3.2c-1.1-2.1-3.3-3.2-6-3.2c-2.3,0-4.5,0.8-6.2,2.3l0.4-2h-5.4L138.4,47h5.7l2-9.8
		c0.7-3.4,2.5-4.9,5.2-4.9c2.1,0,3.1,1,3.1,3c0,0.4,0,0.9-0.1,1.4L152.2,47h5.7l2-9.9c0.7-3.3,2.5-4.8,5.2-4.8c2.1,0,3.1,1,3.1,3
		c0,0.5,0,0.9-0.1,1.5L165.9,47h5.7l2.2-10.7c0.2-0.9,0.3-1.6,0.3-2.4C174,29.7,171.2,27.4,167,27.4z"/>
	<path d="M192.3,30.1c-1.3-2-3.6-2.9-6.4-2.9c-6.1,0-10.9,4.7-10.9,11.2c0,5.5,3.9,8.6,8.5,8.6c2.4,0,4.5-0.8,6-2.2l-0.4,1.9h5.4
		l3.9-19.3h-5.7L192.3,30.1z M185.3,42.4c-2.9,0-4.5-1.6-4.5-4.3c0-3.8,2.4-6.3,5.8-6.3c2.9,0,4.5,1.6,4.5,4.3
		C191,39.8,188.6,42.4,185.3,42.4z"/>
	<polygon points="221.9,23.1 223,17.5 196.7,17.5 195.6,23.1 205.2,23.1 200.4,47 207.3,47 212.2,23.1 	"/>
	<path d="M268.1,27.4c-2.2,0-4.4,0.6-6.1,2l2.4-12h-5.7l-6,29.5h5.7l2-9.8c0.7-3.4,2.7-4.9,5.6-4.9c2.3,0,3.4,1.1,3.4,3.1
		c0,0.4,0,0.9-0.1,1.3L267.1,47h5.7l2.2-10.7c0.2-0.8,0.3-1.6,0.3-2.3C275.3,29.7,272.4,27.4,268.1,27.4z"/>
	<path d="M246.5,41.8c-0.8,0.4-1.7,0.6-2.6,0.6c-2.9,0-4.6-1.7-4.6-4.3c0-3.7,2.5-6.3,5.9-6.3c1.1,0,2.1,0.2,2.8,0.8
		c0.5,0.3,0.9,0.8,1.3,1.3c0.1,0.1,0.2,0.3,0.3,0.4c0.1,0.2,0.1,0.3,0.2,0.5l4.1-2.5l0.6-0.3c0-0.1-0.1-0.2-0.1-0.3l-0.6-0.9
		c-0.1-0.1-0.2-0.2-0.3-0.4c-0.1-0.1-0.1-0.1-0.2-0.2c0,0-0.1-0.1-0.1-0.1c-1.7-1.9-4.3-2.9-7.5-2.9c-7,0-12,4.8-12,11.2
		c0,5.2,3.9,8.6,10,8.6c0.9,0,1.8-0.1,2.6-0.3c2.3-0.5,4.3-1.6,5.8-3.1l-4.3-2.6C247.3,41.3,246.9,41.6,246.5,41.8z"/>
	<path d="M223.2,27.2c0,0-0.1,0-0.1,0c-5.1,0-9.1,2.7-10.8,6.7c0,0,0,0,0,0c-0.6,1.4-0.9,2.9-0.9,4.5c0,5.2,3.9,8.6,10,8.6h0.1
		c0.1,0,0.2,0,0.3,0c0.1,0,0.2,0,0.3,0c0.7,0,1.3-0.1,1.9-0.2c2.1-0.4,4-1.4,5.4-2.8c0.1-0.1,0.2-0.2,0.4-0.4l-4.3-2.6
		c-0.3,0.3-0.7,0.6-1.1,0.8c-0.8,0.4-1.7,0.6-2.6,0.6c-2.7,0-4.4-1.5-4.6-3.8h14.9c0.2-0.9,0.3-1.9,0.3-2.9c0-1.2-0.2-2.4-0.6-3.4
		C230.6,29.1,227.5,27.2,223.2,27.2z M217.4,35.3c0.8-2.4,2.6-4,5.4-4c1.8,0,3.2,0.7,3.9,1.9c0.3,0.6,0.5,1.3,0.5,2.1H217.4z"/>
</g>
</svg>
